<svg width="454" height="421" viewBox="0 0 454 421" fill="none" xmlns="http://www.w3.org/2000/svg">
<path d="M180.188 231.653C136.856 303.113 58.9618 371 17.9587 371C-23.0444 371 13.8737 235.409 51.8308 161.98C94.2228 79.9701 205.148 -18.4556 226.539 2.98111C247.931 24.4178 227.411 153.778 180.188 231.653Z" fill="#EA9901" style="mix-blend-mode:screen"/>
<path d="M226.665 420.528C143.185 418.707 45.5206 385.181 25.0263 349.684C4.53192 314.187 140.287 278.423 222.785 274.606C314.922 270.344 455.516 317.212 447.662 346.438C439.809 375.664 317.639 422.513 226.665 420.528Z" fill="#EA9901" style="mix-blend-mode:screen"/>
<path d="M225.594 321.113C152.387 361.276 51.0448 381.074 15.5475 360.579C-19.9497 340.085 79.7359 241.235 149.273 196.681C226.935 146.921 372.126 117.213 379.938 146.45C387.75 175.688 305.372 277.344 225.594 321.113Z" fill="#EA9901" style="mix-blend-mode:screen"/>
</svg>
